<?xml version="1.0" encoding="utf-8"?>
<?xml-stylesheet type="text/xsl" href="rss1.xsl"?>
<rss version="2.0" xmlns:atom="http://www.w3.org/2005/Atom" xmlns:content="http://purl.org/rss/1.0/modules/content/" xmlns:dc="http://purl.org/dc/elements/1.1/" xmlns:media="http://search.yahoo.com/mrss/">
<channel>
 <title>Getty</title>
 <link>http://www.gettyimg.com/</link>
 <atom:link href="http://www.gettyimg.com/" rel="self" type="application/rss+xml" />

 
                <item>
                <title><![CDATA[【Singles (lossless)】FLAC - a-ha - Take on Me (2015 Remaster) [Qobuz Hi-Res 24bit/96kHz]]]></title>
                <link><![CDATA[https://sharemania.us/threads/a-ha-take-on-me-2015-remaster-qobuz-hi-res-24bit-96khz.241561/]]></link>
                <description><![CDATA[<article>
<blockquote class="messageText SelectQuoteContainer ugc baseHtml">
<span style="font-size: 22px"><b>a-ha - Take on Me (2015 Remaster) [Qobuz Hi-Res 24bit/96kHz]</b></span><br>
<br>
<img src="https://imgur.com/kbw3XEC.jpg" class="bbCodeImage LbImage" alt="[​IMG]" data-url="https://imgur.com/kbw3XEC.jpg" style=""><br>
<br>
Quality: Qobuz Hi-Res 24bit/96kHz<br>
Size: 89MB<br>
<br>
<div class="bbCodeBlock bbCodeVfcHH HiddenContent">
<div class="attribution type">Hidden Content:</div>
<blockquote>You must reply before you can see the hidden data contained here.</blockquote>
</div>
<div class="messageTextEndMarker">&nbsp;</div>
</blockquote>
</article>]]></description>
                <author><![CDATA[abby0511]]></author>
                </item>

                
                <item>
                <title><![CDATA[【HD Live Performances】HDTV - Fleur East - Sax (Top Of The Pops: Christmas Special 2015-12-25) HDTV 1080i MPEG2 DD2.0]]></title>
                <link><![CDATA[https://sharemania.us/threads/fleur-east-sax-top-of-the-pops-christmas-special-2015-12-25-hdtv-1080i-mpeg2-dd2-0.241562/]]></link>
                <description><![CDATA[<article>
<blockquote class="messageText SelectQuoteContainer ugc baseHtml">
<div style="text-align: center"><span style="font-size: 15px"><img src="https://i.imgur.com/NuDX3PM.png" class="bbCodeImage LbImage" alt="[​IMG]" data-url="https://i.imgur.com/NuDX3PM.png" style=""> <br>
<br>
<img src="https://i.imgur.com/C9GaZcD.png" class="bbCodeImage LbImage" alt="[​IMG]" data-url="https://i.imgur.com/C9GaZcD.png" style=""> <br>
<div class="ToggleTriggerAnchor bbCodeSpoilerContainer">
<button type="button" class="button bbCodeSpoilerButton ToggleTrigger Tooltip JsOnly" data-target="> .SpoilerTarget"><span>Spoiler: <span class="SpoilerTitle">MediaInfo</span></span></button>
<div class="SpoilerTarget bbCodeSpoilerText">Video<br>
ID : 256 (0x100)<br>
Menu ID : 1 (0x1)<br>
Format : AVC<br>
Format/Info : Advanced Video Codec<br>
Format profile : High@L4<br>
Format settings : CABAC / 4 Ref Frames<br>
Format settings, CABAC : Yes<br>
Format settings, Reference : 4 frames<br>
Format settings, GOP : M=8, N=24<br>
Codec ID : 27<br>
Duration : 3 min 43 s<br>
Bit rate mode : Variable<br>
Bit rate : 12.2 Mb/s<br>
Maximum bit rate : 40.0 Mb/s<br>
Width : 1 920 pixels<br>
Height : 1 080 pixels<br>
Display aspect ratio : 16:9<br>
Frame rate : 25.000 FPS<br>
Standard : Component<br>
Color space : YUV<br>
Chroma subsampling : 4:2:0<br>
Bit depth : 8 bits<br>
Scan type : MBAFF<br>
Scan type, store method : Separated fields<br>
Scan order : Top Field First<br>
Bits/(Pixel*Frame) : 0.236<br>
Stream size : 325 MiB (92%)<br>
Color range : Limited<br>
Color primaries : BT.709<br>
Transfer characteristics : BT.709<br>
Matrix coefficients : BT.709<br>
<br>
Audio #1<br>
ID : 257 (0x101)<br>
Menu ID : 1 (0x1)<br>
Format : AC-3<br>
Format/Info : Audio Coding 3<br>
Commercial name : Dolby Digital<br>
Codec ID : 129<br>
Duration : 3 min 43 s<br>
Bit rate mode : Constant<br>
Bit rate : 192 kb/s<br>
Channel(s) : 2 channels<br>
Channel layout : L R<br>
Sampling rate : 48.0 kHz<br>
Frame rate : 31.250 FPS (1536 SPF)<br>
Compression mode : Lossy<br>
Delay relative to video : 192 ms<br>
Stream size : 5.11 MiB (1%)<br>
Language : English<br>
Service kind : Complete Main<br>
<br>
Audio #2<br>
ID : 258 (0x102)<br>
Menu ID : 1 (0x1)<br>
Format : MPEG Audio<br>
Format version : Version 1<br>
Format profile : Layer 2<br>
Codec ID : 3<br>
Duration : 3 min 43 s<br>
Bit rate mode : Constant<br>
Bit rate : 256 kb/s<br>
Channel(s) : 2 channels<br>
Sampling rate : 48.0 kHz<br>
Frame rate : 41.667 FPS (1152 SPF)<br>
Compression mode : Lossy<br>
Delay relative to video : 5 ms<br>
Stream size : 6.81 MiB (2%)</div>
</div></span><br>
<span style="font-size: 18px"><br>
</span>
<div class="bbCodeBlock bbCodeVfcHH HiddenContent">
<div class="attribution type">Hidden Content:</div>
<blockquote>You must reply before you can see the hidden data contained here.</blockquote>
</div><span style="font-size: 18px"><br>
<br>
File originally posted <a href="https://sharemania.us/threads/fleur-east-sax-top-of-the-pops-christmas-1080i-2015.22526/" class="internalLink">here</a>.</span>​</div>
<div class="messageTextEndMarker">&nbsp;</div>
</blockquote>
</article>]]></description>
                <author><![CDATA[Carlos]]></author>
                </item>

                </channel></rss>